<?xml version="1.0" encoding="utf-8"?>
<!-- Generator: Adobe Illustrator 13.0.2, SVG Export Plug-In . SVG Version: 6.00 Build 14948)  -->
<!DOCTYPE svg PUBLIC "-//W3C//DTD SVG 1.1//EN" "http://www.w3.org/Graphics/SVG/1.1/DTD/svg11.dtd">
<svg version="1.1" id="Ebene_1" xmlns="http://www.w3.org/2000/svg" xmlns:xlink="http://www.w3.org/1999/xlink" x="0px" y="0px"
	 width="256px" height="256px" viewBox="0 0 256 256" enable-background="new 0 0 256 256" xml:space="preserve">
<g>
	<g>
		<g>
			<g>
				<defs>
					<rect id="SVGID_1_" x="2.046" y="16.714" width="251.896" height="221.981"/>
				</defs>
				<clipPath id="SVGID_2_">
					<use xlink:href="#SVGID_1_"  overflow="visible"/>
				</clipPath>
				<path clip-path="url(#SVGID_2_)" fill="#CCCB66" d="M76.041,82.143c-4.597-1.447-11.209,0-14.799,3.275L4.313,137.875
					c-3.526,3.273-2.896,7.684,1.448,9.761l72.545,35.267c4.345,2.078,9.195,0.125,10.831-4.408l26.513-74.372
					c1.638-4.534-0.818-9.446-5.416-10.958L76.041,82.143z"/>
			</g>
		</g>
	</g>
	<g>
		<g>
			<g>
				<defs>
					<rect id="SVGID_3_" x="2.046" y="16.714" width="251.896" height="221.981"/>
				</defs>
				<clipPath id="SVGID_4_">
					<use xlink:href="#SVGID_3_"  overflow="visible"/>
				</clipPath>
				<path clip-path="url(#SVGID_4_)" fill="#999933" d="M89.139,178.432c-1.637,4.533,0.567,6.485,4.912,4.344l55.104-27.33
					c4.283-2.141,8.186-7.81,8.563-12.596L162,89.196c0.377-4.786-3.021-7.43-7.559-5.856l-27.519,9.634
					c-4.534,1.574-9.572,6.612-11.21,11.146L89.139,178.432z"/>
			</g>
		</g>
	</g>
	<g>
		<g>
			<g>
				<defs>
					<rect id="SVGID_5_" x="2.046" y="16.714" width="251.896" height="221.981"/>
				</defs>
				<clipPath id="SVGID_6_">
					<use xlink:href="#SVGID_5_"  overflow="visible"/>
				</clipPath>
				<path clip-path="url(#SVGID_6_)" fill="#CCCB66" d="M161.938,89.259c0.377-4.786,4.28-7.179,8.752-5.289L203.5,98.076
					c4.407,1.889,9.445,7.116,11.21,11.65l24.876,64.674c1.699,4.471-0.566,6.802-5.102,5.164l-69.271-25.063
					c-4.533-1.639-7.936-6.929-7.559-11.715L161.938,89.259z"/>
			</g>
		</g>
	</g>
	<g>
		<g>
			<g>
				<defs>
					<rect id="SVGID_7_" x="2.046" y="16.714" width="251.896" height="221.981"/>
				</defs>
				<clipPath id="SVGID_8_">
					<use xlink:href="#SVGID_7_"  overflow="visible"/>
				</clipPath>
				<path clip-path="url(#SVGID_8_)" fill="#356666" d="M16.468,201.729c0-2.14-0.315-2.519-1.827-2.519
					c-0.818,0-1.763,0.315-2.457,0.757v24.748c0,1.322-0.189,1.322-7.241,1.322V195.18c2.456-1.132,6.109-2.141,9.949-2.141
					c2.33,0,4.093,0.566,5.353,1.701c2.267-1.008,5.1-1.701,7.619-1.701c6.612,0,7.305,3.213,7.305,8.816v22.858
					c0,1.323-0.252,1.323-7.241,1.323v-23.993c0-2.017-0.379-2.646-1.89-2.646c-0.882,0-1.7,0.189-2.394,0.567v24.747
					c0,1.323,0.126,1.323-7.242,1.323V201.73L16.468,201.729L16.468,201.729z"/>
			</g>
		</g>
	</g>
	<g>
		<g>
			<g>
				<defs>
					<rect id="SVGID_9_" x="2.046" y="16.714" width="251.896" height="221.981"/>
				</defs>
				<clipPath id="SVGID_10_">
					<use xlink:href="#SVGID_9_"  overflow="visible"/>
				</clipPath>
				<path clip-path="url(#SVGID_10_)" fill="#356666" d="M48.269,211.177c-1.448,0-2.267,1.007-2.267,5.163
					c0,3.086,0.441,4.348,2.079,4.348c0.565,0,1.385-0.189,1.763-0.631c0.126-1.447,0.126-5.604,0.126-8.312
					C49.465,211.302,48.773,211.177,48.269,211.177 M39.39,194.93c0.882-0.691,4.47-1.89,9.635-1.89c5.92,0,8.123,2.079,8.123,7.872
					v3.021c0,7.432,0,15.871-0.315,20.594c-2.203,1.322-5.415,2.078-9.319,2.078c-4.786,0-9.195-1.071-9.195-10.076
					c0-8.879,3.589-10.643,7.431-10.643c0.944,0,2.96,0.189,4.157,0.943v-4.471c0-1.7-0.693-2.393-2.708-2.393
					c-2.394,0-5.604,0.566-7.746,1.385c-0.756-1.511-0.944-3.147-0.944-4.218C38.508,196.378,38.823,195.371,39.39,194.93"/>
			</g>
		</g>
	</g>
	<g>
		<g>
			<g>
				<defs>
					<rect id="SVGID_11_" x="2.046" y="16.714" width="251.896" height="221.981"/>
				</defs>
				<clipPath id="SVGID_12_">
					<use xlink:href="#SVGID_11_"  overflow="visible"/>
				</clipPath>
				<path clip-path="url(#SVGID_12_)" fill="#356666" d="M68.294,219.048c0.566,0.819,1.071,1.136,1.827,1.136
					c1.385,0,2.771-1.388,2.771-13.666c0-6.234-0.756-7.369-2.645-7.369c-0.693,0-1.448,0.315-1.953,0.758V219.048L68.294,219.048z
					 M61.052,195.559c2.518-1.574,6.172-2.52,9.571-2.52c6.172,0,10.392,2.52,10.392,13.1c0,17.317-3.841,20.467-8.438,20.467
					c-1.954,0-3.212-0.377-4.283-1.26v12.721c-1.07,0.379-2.582,0.567-3.778,0.567c-2.519,0-3.463-0.629-3.463-3.149L61.052,195.559
					L61.052,195.559z"/>
			</g>
		</g>
	</g>
	<g>
		<g>
			<g>
				<defs>
					<rect id="SVGID_13_" x="2.046" y="16.714" width="251.896" height="221.981"/>
				</defs>
				<clipPath id="SVGID_14_">
					<use xlink:href="#SVGID_13_"  overflow="visible"/>
				</clipPath>
				<path clip-path="url(#SVGID_14_)" fill="#356666" d="M102.237,197.07c0,1.07-0.567,2.52-1.448,3.465
					c-1.763-0.945-3.526-1.389-5.541-1.389c-2.079,0-3.023,0.693-3.023,1.953c0,0.692,0.189,1.512,1.89,3.211l4.785,4.852
					c2.582,2.958,3.212,4.848,3.212,8.061c0,5.793-4.282,9.319-10.831,9.319c-4.157,0-7.556-0.883-7.556-3.841
					c0-1.01,0.314-2.52,1.133-4.096c1.827,0.945,3.841,1.449,5.605,1.449c2.267,0,3.275-1.07,3.275-2.707
					c0-0.883-0.127-2.143-1.448-3.59l-5.605-5.92c-2.268-2.393-3.086-4.975-3.086-6.863c0-4.533,2.645-7.998,10.642-7.998
					C101.544,193.04,102.237,195.496,102.237,197.07"/>
			</g>
		</g>
	</g>
	<g>
		<g>
			<g>
				<defs>
					<rect id="SVGID_15_" x="2.046" y="16.714" width="251.896" height="221.981"/>
				</defs>
				<clipPath id="SVGID_16_">
					<use xlink:href="#SVGID_15_"  overflow="visible"/>
				</clipPath>
				<path clip-path="url(#SVGID_16_)" fill="#356666" d="M118.8,200.85c-0.063-2.33-0.568-3.211-3.149-3.211
					c-1.448,0-2.897,0.313-4.408,1.069v26.26c0,1.009-0.188,1.009-5.227,1.009V195.12c2.834-1.324,6.235-2.144,9.762-2.144
					c2.77,0,4.597,0.692,5.793,2.016c2.204-1.258,5.29-2.016,7.934-2.016c6.486,0,7.244,3.274,7.244,9.133v22.797
					c0,1.007-0.19,1.007-5.228,1.007v-23.931c0-3.086-0.566-4.407-3.148-4.407c-1.512,0-2.897,0.313-4.346,1.196v26.07
					c0,1.008,0.063,1.008-5.227,1.008V200.85L118.8,200.85z"/>
			</g>
		</g>
	</g>
	<g>
		<g>
			<g>
				<defs>
					<rect id="SVGID_17_" x="2.046" y="16.714" width="251.896" height="221.981"/>
				</defs>
				<clipPath id="SVGID_18_">
					<use xlink:href="#SVGID_17_"  overflow="visible"/>
				</clipPath>
				<path clip-path="url(#SVGID_18_)" fill="#356666" d="M151.546,210.169c-2.582,0-4.787,0.881-4.787,6.549
					c0,4.724,1.702,5.542,4.22,5.542c1.449,0,2.834-0.504,3.402-1.07c0.188-2.142,0.188-6.928,0.188-10.391
					C153.75,210.357,152.49,210.169,151.546,210.169 M142.1,194.74c1.072-0.693,4.914-1.766,9.823-1.766
					c5.543,0,7.998,2.08,7.998,7.873v3.4c0,7.432-0.062,15.177-0.378,20.089c-1.764,1.009-4.784,2.204-9.005,2.204
					c-4.724,0.063-9.259-0.943-9.259-9.824c0-9.006,4.281-10.578,8.629-10.578c1.447,0,3.398,0.188,4.722,0.818v-5.102
					c0-3.021-1.448-3.842-4.03-3.842c-3.211,0-6.675,0.631-8.563,1.448c-0.565-1.007-0.69-2.204-0.69-2.96
					C141.344,195.874,141.533,195.182,142.1,194.74"/>
			</g>
		</g>
	</g>
	<g>
		<g>
			<g>
				<defs>
					<rect id="SVGID_19_" x="2.046" y="16.714" width="251.896" height="221.981"/>
				</defs>
				<clipPath id="SVGID_20_">
					<use xlink:href="#SVGID_19_"  overflow="visible"/>
				</clipPath>
				<path clip-path="url(#SVGID_20_)" fill="#356666" d="M165.212,195.938c2.521-1.763,5.604-2.896,8.815-2.896
					c3.275,0,4.533,0.943,4.533,2.709c0,0.691-0.125,2.014-0.565,3.086c-0.946-0.505-2.017-0.757-3.086-0.757
					c-1.448,0-3.022,0.44-4.283,1.512l-0.063,25.378c0,1.008-0.061,1.008-5.289,1.008v-30.039H165.212L165.212,195.938z"/>
			</g>
		</g>
	</g>
	<g>
		<g>
			<g>
				<defs>
					<rect id="SVGID_21_" x="2.046" y="16.714" width="251.896" height="221.981"/>
				</defs>
				<clipPath id="SVGID_22_">
					<use xlink:href="#SVGID_21_"  overflow="visible"/>
				</clipPath>
				<path clip-path="url(#SVGID_22_)" fill="#356666" d="M192.982,197.764c-1.765,0-3.717,1.008-5.354,3.086v7.996
					c4.471-1.826,7.745-4.406,7.745-8.438C195.375,198.708,194.557,197.764,192.982,197.764 M182.277,180.887
					c0-2.394,0.943-2.394,5.289-2.394v17.508c2.142-1.826,5.289-2.961,8.061-2.961c4.283,0,5.48,2.583,5.48,5.542
					c0,5.354-3.778,8.754-5.354,10.014c3.085,1.385,5.856,4.975,6.424,10.895c0.063,0.63,0.063,1.385,0.063,2.141
					c0,1.008-0.063,2.143-0.188,3.274c-0.126,1.008-0.126,1.008-5.919,1.008c0.124-1.513,0.251-2.835,0.251-4.156
					c0-1.448-0.126-2.646-0.313-3.841c-0.756-5.165-3.149-7.18-5.604-6.675c-1.134,0.251-2.834,1.258-2.834,1.258v12.343
					c0,1.008,0.063,1.008-5.289,1.008v-44.964h-0.063v0.001H182.277z"/>
			</g>
		</g>
	</g>
	<g>
		<g>
			<g>
				<defs>
					<rect id="SVGID_23_" x="2.046" y="16.714" width="251.896" height="221.981"/>
				</defs>
				<clipPath id="SVGID_24_">
					<use xlink:href="#SVGID_23_"  overflow="visible"/>
				</clipPath>
				<path clip-path="url(#SVGID_24_)" fill="#356666" d="M210.992,208.596c2.455,0.063,6.486-0.063,8.755-0.693
					c0.251-1.135,0.313-2.645,0.313-3.903c-0.063-4.659-0.881-6.424-3.717-6.424C213.7,197.639,211.372,199.904,210.992,208.596
					 M225.162,203.432c0,2.832-0.189,6.045-0.693,8.375c-4.471,0.818-10.39,1.008-13.539,1.008c0.252,6.863,2.078,8.689,5.982,8.689
					c2.582,0,5.164-0.756,7.367-2.015c0.314,0.944,0.439,2.519,0.439,3.526c0,2.014-4.092,3.525-8.939,3.525
					c-5.982,0-10.328-2.52-10.328-15.113c0-16.185,5.729-18.514,11.461-18.514C222.393,193.04,225.162,196.439,225.162,203.432"/>
			</g>
		</g>
	</g>
	<g>
		<g>
			<g>
				<defs>
					<rect id="SVGID_25_" x="2.046" y="16.714" width="251.896" height="221.981"/>
				</defs>
				<clipPath id="SVGID_26_">
					<use xlink:href="#SVGID_25_"  overflow="visible"/>
				</clipPath>
				<path clip-path="url(#SVGID_26_)" fill="#356666" d="M229.758,195.938c2.521-1.763,5.605-2.896,8.817-2.896
					c3.274,0,4.534,0.943,4.534,2.709c0,0.691-0.127,2.014-0.567,3.086c-0.944-0.505-2.015-0.757-3.086-0.757
					c-1.448,0-3.021,0.44-4.281,1.512l-0.063,25.378c0,1.008-0.063,1.008-5.291,1.008v-30.039H229.758L229.758,195.938z"/>
			</g>
		</g>
	</g>
	<g>
		<g>
			<g>
				<defs>
					<rect id="SVGID_27_" x="2.046" y="16.714" width="251.896" height="221.981"/>
				</defs>
				<clipPath id="SVGID_28_">
					<use xlink:href="#SVGID_27_"  overflow="visible"/>
				</clipPath>
				<path clip-path="url(#SVGID_28_)" fill="#CCCB66" d="M55.134,19.168c-12.659,0-33.377,10.77-33.377,35.644
					c0,29.976,29.786,29.913,29.786,75.379c0,7.242,7.243,7.242,7.243,0c0-45.468,29.786-45.404,29.786-75.379
					C88.571,29.938,67.791,19.168,55.134,19.168"/>
			</g>
		</g>
	</g>
	<g>
		<g>
			<g>
				<defs>
					<rect id="SVGID_29_" x="2.046" y="16.714" width="251.896" height="221.981"/>
				</defs>
				<clipPath id="SVGID_30_">
					<use xlink:href="#SVGID_29_"  overflow="visible"/>
				</clipPath>
				<path clip-path="url(#SVGID_30_)" fill="none" stroke="#356666" stroke-width="5" d="M55.134,19.168
					c-12.659,0-33.377,10.77-33.377,35.644c0,29.976,29.786,29.913,29.786,75.379c0,7.242,7.243,7.242,7.243,0
					c0-45.468,29.786-45.404,29.786-75.379C88.571,29.938,67.791,19.168,55.134,19.168"/>
			</g>
		</g>
	</g>
	<g>
		<g>
			<g>
				<defs>
					<rect id="SVGID_31_" x="2.046" y="16.714" width="251.896" height="221.981"/>
				</defs>
				<clipPath id="SVGID_32_">
					<use xlink:href="#SVGID_31_"  overflow="visible"/>
				</clipPath>
				<path clip-path="url(#SVGID_32_)" fill="#356666" d="M65.083,54.687c0,5.605-4.534,10.202-10.202,10.202
					c-5.605,0-10.201-4.534-10.201-10.202c0-5.605,4.533-10.202,10.201-10.202C60.549,44.548,65.083,49.082,65.083,54.687"/>
			</g>
		</g>
	</g>
	<g>
		<g>
			<g>
				<defs>
					<rect id="SVGID_33_" x="2.046" y="16.714" width="251.896" height="221.981"/>
				</defs>
				<clipPath id="SVGID_34_">
					<use xlink:href="#SVGID_33_"  overflow="visible"/>
				</clipPath>
				<path clip-path="url(#SVGID_34_)" fill="#CC6814" d="M236.436,62.37c1.762,4.786-0.691,10.138-5.543,11.901l-79.914,29.156
					c-4.785,1.764-10.138-0.692-11.9-5.542l-7.494-20.466c-1.764-4.786,0.693-10.139,5.541-11.903l79.914-29.156
					c4.787-1.763,10.139,0.693,11.902,5.542L236.436,62.37z"/>
			</g>
		</g>
	</g>
	<g>
		<g>
			<g>
				<defs>
					<rect id="SVGID_35_" x="2.046" y="16.714" width="251.896" height="221.981"/>
				</defs>
				<clipPath id="SVGID_36_">
					<use xlink:href="#SVGID_35_"  overflow="visible"/>
				</clipPath>
				<path clip-path="url(#SVGID_36_)" fill="#FFFFFF" d="M158.536,65.329l-1.323,0.503l4.157,11.336l1.007-0.377
					c1.512-0.567,2.078-2.079,0.063-7.558C161.244,66.084,160.048,64.825,158.536,65.329 M150.287,64.07
					c-0.254-0.692-0.189-1.007,0.629-1.323l4.598-1.701c6.172-2.267,10.328-1.449,13.286,6.612
					c3.275,8.879-0.756,12.783-5.353,14.421l-0.313,0.125l4.472,12.281c0.377,1.007,0.314,1.007-5.164,3.021L150.287,64.07z"/>
			</g>
		</g>
	</g>
	<g>
		<g>
			<g>
				<defs>
					<rect id="SVGID_37_" x="2.046" y="16.714" width="251.896" height="221.981"/>
				</defs>
				<clipPath id="SVGID_38_">
					<use xlink:href="#SVGID_37_"  overflow="visible"/>
				</clipPath>
				<path clip-path="url(#SVGID_38_)" fill="#FFFFFF" d="M178.184,58.213l-1.322,0.503l4.156,11.336l1.008-0.378
					c1.51-0.566,2.076-2.078,0.252-7.178C180.891,58.905,179.693,57.646,178.184,58.213 M188.512,60.48
					c1.764,4.849,1.387,8.187-0.063,10.518c2.394,1.51,6.232,4.848,9.32,12.404c0.313,0.945,0.252,1.323-2.394,2.268
					c-0.883,0.315-2.017,0.692-3.274,1.007c-3.021-7.62-6.172-10.831-8.061-12.091l-1.197,0.441l4.471,12.28
					c0.379,1.007,0.254,1.007-5.164,3.023l-12.217-33.439c0,0-0.377-1.007,0.629-1.323l4.599-1.702
					C181.396,51.601,185.553,52.419,188.512,60.48"/>
			</g>
		</g>
	</g>
	<g>
		<g>
			<g>
				<defs>
					<rect id="SVGID_39_" x="2.046" y="16.714" width="251.896" height="221.981"/>
				</defs>
				<clipPath id="SVGID_40_">
					<use xlink:href="#SVGID_39_"  overflow="visible"/>
				</clipPath>
				<path clip-path="url(#SVGID_40_)" fill="#FFFFFF" d="M209.041,74.586c2.395-0.882,1.701-4.534-1.512-13.224
					c-3.147-8.564-4.533-11.714-7.243-10.769c-2.267,0.819-1.636,4.471,1.89,14.106C205.012,72.382,206.521,75.468,209.041,74.586
					 M198.463,44.863c6.424-2.33,10.074,0.504,15.049,14.106c5.038,13.854,3.717,19.081-2.705,21.475
					c-6.425,2.33-10.078-0.063-15.367-14.611C190.527,52.357,192.102,47.194,198.463,44.863"/>
			</g>
		</g>
	</g>
	<g>
		<g>
			<g>
				<defs>
					<rect id="SVGID_41_" x="2.046" y="16.714" width="251.896" height="221.981"/>
				</defs>
				<clipPath id="SVGID_42_">
					<use xlink:href="#SVGID_41_"  overflow="visible"/>
				</clipPath>
				<path clip-path="url(#SVGID_42_)" fill="#356666" d="M247.201,181.391h0.505c0.692,0,1.071,0,1.26,0.063
					c0.188,0.064,0.315,0.127,0.38,0.252c0.062,0.126,0.123,0.252,0.123,0.441c0,0.188-0.063,0.314-0.123,0.439
					c-0.128,0.126-0.255,0.252-0.38,0.252c-0.188,0.063-0.567,0.063-1.26,0.063h-0.505V181.391z M247.201,186.302v-2.392h0.316
					c0.313,0,0.629,0.063,0.817,0.251s0.505,0.567,0.817,1.196l0.506,0.943h1.447l-0.692-1.195c-0.251-0.44-0.377-0.629-0.438-0.691
					c-0.191-0.189-0.315-0.379-0.379-0.441c-0.127-0.063-0.252-0.125-0.378-0.188c0.505-0.063,0.882-0.253,1.134-0.567
					c0.254-0.313,0.44-0.63,0.44-1.069c0-0.316-0.063-0.567-0.188-0.819c-0.127-0.252-0.316-0.44-0.567-0.565
					c-0.188-0.127-0.505-0.189-0.884-0.253c-0.123,0-0.754,0-1.822,0h-1.197v5.794h1.068V186.302z M250.666,179.501
					c0.693,0.378,1.262,0.944,1.639,1.638s0.565,1.448,0.565,2.204c0,0.757-0.188,1.511-0.565,2.204
					c-0.377,0.691-0.943,1.26-1.639,1.639c-0.691,0.377-1.448,0.565-2.204,0.565s-1.511-0.188-2.204-0.565
					c-0.693-0.379-1.26-0.946-1.638-1.639c-0.377-0.693-0.565-1.447-0.565-2.204s0.188-1.511,0.565-2.204
					c0.377-0.691,0.944-1.26,1.638-1.638c0.693-0.379,1.387-0.565,2.141-0.565C249.218,178.936,249.975,179.122,250.666,179.501
					 M245.754,178.618c-0.881,0.442-1.511,1.134-2.016,2.017c-0.506,0.883-0.756,1.764-0.756,2.77c0,0.945,0.25,1.891,0.756,2.71
					c0.505,0.882,1.135,1.511,2.016,2.016c0.883,0.504,1.764,0.755,2.708,0.755s1.888-0.251,2.708-0.755
					c0.881-0.505,1.512-1.134,2.016-2.016c0.502-0.882,0.756-1.765,0.756-2.71c0-0.942-0.254-1.887-0.756-2.77
					c-0.504-0.883-1.197-1.572-2.016-2.017c-0.883-0.438-1.764-0.691-2.708-0.691S246.637,178.115,245.754,178.618"/>
			</g>
		</g>
	</g>
</g>
<line fill="none" x1="0" y1="0" x2="256" y2="0"/>
<line fill="none" x1="256" y1="0" x2="256" y2="256"/>
<line fill="none" x1="256" y1="256" x2="0" y2="256"/>
<line fill="none" x1="0" y1="256" x2="0" y2="0"/>
</svg>
